<svg width="680" height="680" viewBox="0 0 680 680" fill="none" xmlns="http://www.w3.org/2000/svg">
<path d="M618 284C618 427.594 501.594 544 358 544C214.406 544 98 427.594 98 284C98 140.406 214.406 24 358 24C501.594 24 618 140.406 618 284Z" fill="white"/>
<path d="M594 284C594 414.339 488.339 520 358 520C227.661 520 122 414.339 122 284C122 153.661 227.661 48 358 48C488.339 48 594 153.661 594 284Z" fill="black" fill-opacity="0.4"/>
<path d="M594 284C594 414.339 488.339 520 358 520C227.661 520 122 414.339 122 284C122 153.661 227.661 48 358 48C488.339 48 594 153.661 594 284Z" fill="url(#paint0_linear_2519_2386)"/>
<circle cx="358" cy="284" r="191.472" fill="white"/>
<circle cx="358" cy="284" r="146.943" fill="#EDC6DB"/>
<circle cx="358" cy="284" r="102.415" fill="white"/>
<circle cx="358" cy="284" r="57.8868" fill="#FCCD63"/>
<path d="M521 322C467.838 322 428.195 353.366 395.918 377.89H344.342C346.065 371.922 347 365.594 347 359C347 288.949 281.006 239.127 208.041 239H207.959C116.996 239.156 42.1435 305.662 42 399.238V399.305L42.0078 401.042C43.2118 548.486 174.062 653 330 653C410.73 653 484.188 616.543 537.182 565.842C589.836 515.466 625 448.332 625 384C625 372.098 619.021 362.417 613.374 355.949C607.364 349.066 599.457 343.136 590.627 338.312C572.858 328.607 548.85 322 521 322Z" fill="white"/>
<path d="M227 389C227 422.689 259.064 448 298 448C388 448 433.5 346 521 346C569.325 346 601 369 601 384C601 496 476.908 629 330 629C183.194 629 66.1653 531.144 66 399.275C66.1213 320.209 128.938 263.136 208 263C271.951 263.111 323 306.049 323 359C323 378.738 309.859 395.399 292.315 401.907C290.866 402.445 289.472 401.102 289.765 399.584C295.066 372.154 277.51 356 260 356C241.774 356 227 370.774 227 389Z" fill="#75D3D3"/>
<path d="M555.5 370.5C589.035 365.857 599.333 380.5 601 384C601 422.09 586.647 462.61 561.925 499.5C496.5 484 451.745 528.557 376 551C270.758 582.183 146.121 493.87 196.677 414.698C197.305 413.713 199.043 414.536 198.795 415.678C190.186 455.356 233.437 512.355 337 499.5C424.65 488.62 458 384 555.5 370.5Z" fill="#AFEEE6"/>
<path d="M208 263C128.938 263.136 66.1213 320.209 66 399.275C66.1653 531.144 183.194 629 330 629C355.353 629 380.026 625.039 403.5 617.908C224 618 128 521.5 128 432C128 342.5 179.5 312 224 312C268.5 312 296 352.5 296 376C296 394.132 291.823 396.565 289.961 399.282C289.826 399.479 289.732 399.704 289.726 399.942C289.694 401.304 290.982 402.402 292.315 401.907C309.859 395.399 323 378.738 323 359C323 306.049 271.951 263.111 208 263Z" fill="#AFEEE6"/>
<defs>
<linearGradient id="paint0_linear_2519_2386" x1="122" y1="284" x2="594" y2="284" gradientUnits="userSpaceOnUse">
<stop stop-color="#F9B09F"/>
<stop offset="1" stop-color="#FECF65"/>
</linearGradient>
</defs>
</svg>
