<svg width="950" height="950" viewBox="0 0 950 950" fill="none" xmlns="http://www.w3.org/2000/svg">
<rect width="950" height="950" fill="white"/>
<circle cx="501" cy="417" r="236" fill="black" fill-opacity="0.4"/>
<circle cx="501" cy="417" r="236" fill="url(#paint0_linear_2519_2344)"/>
<circle cx="501" cy="417" r="191.472" fill="white"/>
<circle cx="501" cy="417" r="146.943" fill="#EDC6DB"/>
<circle cx="501" cy="417" r="102.415" fill="white"/>
<circle cx="501" cy="417" r="57.8868" fill="#FCCD63"/>
<path d="M664 455C610.838 455 571.195 486.366 538.918 510.89H487.342C489.065 504.922 490 498.594 490 492C490 421.949 424.006 372.127 351.041 372H350.959C259.996 372.156 185.144 438.662 185 532.238V532.305L185.008 534.042C186.212 681.486 317.062 786 473 786C553.73 786 627.188 749.543 680.182 698.842C732.836 648.466 768 581.332 768 517C768 505.098 762.021 495.417 756.374 488.949C750.364 482.066 742.457 476.136 733.627 471.312C715.858 461.607 691.85 455 664 455Z" fill="white"/>
<path d="M370 522C370 555.689 402.064 581 441 581C531 581 576.5 479 664 479C712.325 479 744 502 744 517C744 629 619.908 762 473 762C326.194 762 209.165 664.144 209 532.275C209.121 453.209 271.938 396.136 351 396C414.951 396.111 466 439.049 466 492C466 511.738 452.859 528.399 435.315 534.907C433.866 535.445 432.472 534.102 432.765 532.584C438.066 505.154 420.51 489 403 489C384.774 489 370 503.774 370 522Z" fill="#75D3D3"/>
<path d="M698.5 503.5C732.035 498.856 742.333 513.5 744 517C744 555.09 729.647 595.609 704.925 632.5C639.5 617 594.745 661.557 519 684C413.758 715.182 289.121 626.87 339.677 547.697C340.305 546.713 342.043 547.536 341.795 548.677C333.186 588.356 376.437 645.355 480 632.5C567.65 621.619 601 517 698.5 503.5Z" fill="#AFEEE6"/>
<path d="M351 396C271.938 396.136 209.121 453.209 209 532.275C209.165 664.144 326.194 762 473 762C498.353 762 523.026 758.039 546.5 750.908C367 751 271 654.5 271 565C271 475.5 322.5 445 367 445C411.5 445 439 485.5 439 509C439 527.132 434.823 529.565 432.961 532.282C432.826 532.479 432.732 532.704 432.726 532.942C432.694 534.304 433.982 535.402 435.315 534.907C452.859 528.399 466 511.738 466 492C466 439.049 414.951 396.111 351 396Z" fill="#AFEEE6"/>
<defs>
<linearGradient id="paint0_linear_2519_2344" x1="265" y1="417" x2="737" y2="417" gradientUnits="userSpaceOnUse">
<stop stop-color="#F9B09F"/>
<stop offset="1" stop-color="#FECF65"/>
</linearGradient>
</defs>
</svg>
